<svg width="100" height="100" viewBox="0 0 100 100" fill="none" xmlns="http://www.w3.org/2000/svg">
<g clip-path="url(#clip0_12_4)">
<path d="M90.9092 0H9.09099C4.07706 0 0 4.07706 0 9.09099V90.9092C0 95.9229 4.07706 100 9.09099 100H90.9092C95.9229 100 100 95.9232 100 90.9092V9.09099C100 4.07706 95.9229 0 90.9092 0ZM98 90.9092C98 95 95 98 90.9092 98H9.09099C5 98 2.00021 95 2.00021 90.9092L2 21H98V90.9092ZM98.0002 19H2.00021L2 9.09099C2 5 5 2 9.09099 2H90.9092C95 2 98 5 97.9998 9.09099L98.0002 19Z" fill="#5B7C99"/>
<path d="M11.5 13C12.8807 13 14 11.8807 14 10.5C14 9.11929 12.8807 8 11.5 8C10.1193 8 9 9.11929 9 10.5C9 11.8807 10.1193 13 11.5 13Z" fill="#5B7C99"/>
<path d="M20.5 13C21.8807 13 23 11.8807 23 10.5C23 9.11929 21.8807 8 20.5 8C19.1193 8 18 9.11929 18 10.5C18 11.8807 19.1193 13 20.5 13Z" fill="#5B7C99"/>
<path d="M29.5 13C30.8807 13 32 11.8807 32 10.5C32 9.11929 30.8807 8 29.5 8C28.1193 8 27 9.11929 27 10.5C27 11.8807 28.1193 13 29.5 13Z" fill="#5B7C99"/>
<rect x="11" y="53" width="79" height="40" fill="white" stroke="#5B7C99"/>
<path d="M40.9579 70.838L30.75 82.3H70.25L56.238 62.55L46.3471 75.9518L40.9579 70.838Z" fill="#5B7C99" stroke="#5B7C99"/>
<ellipse cx="35.949" cy="65.9586" rx="2.53611" ry="2.35119" fill="#5B7C99"/>
<rect x="11" y="27" width="46" height="20" fill="white" stroke="#5B7C99"/>
<path d="M30.5873 36.4107L25.4833 42.1417H45.2333L38.2273 32.2667L33.2819 38.9676L30.5873 36.4107Z" fill="#5B7C99" stroke="#5B7C99"/>
<ellipse cx="28.0829" cy="33.9721" rx="1.26806" ry="1.1756" fill="#5B7C99"/>
<rect x="64" y="27" width="26" height="20" fill="white" stroke="#5B7C99"/>
<path d="M75.6054 37.1101L72.8833 40.1667H83.4167L79.6801 34.9L77.0426 38.4738L75.6054 37.1101Z" fill="#5B7C99" stroke="#5B7C99"/>
<ellipse cx="74.2698" cy="35.8092" rx="0.676298" ry="0.626984" fill="#5B7C99"/>
</g>
<defs>
<clipPath id="clip0_12_4">
<rect width="100" height="100" fill="white"/>
</clipPath>
</defs>
</svg>
