<svg width="100" height="100" viewBox="0 0 100 100" fill="none" xmlns="http://www.w3.org/2000/svg">
<g clip-path="url(#clip0_3_23)">
<path d="M90.9092 0H9.09099C4.07706 0 0 4.07706 0 9.09099V90.9092C0 95.9229 4.07706 100 9.09099 100H90.9092C95.9229 100 100 95.9232 100 90.9092V9.09099C100 4.07706 95.9229 0 90.9092 0ZM98 90.9092C98 95 95 98 90.9092 98H9.09099C5 98 2.00021 95 2.00021 90.9092V81.8182H98V90.9092ZM98.0002 80H2.00021L1.99979 21H97.9998L98.0002 80ZM97.9998 19H1.99979L2 9.09099C2 5 5 2 9.09099 2H90.9092C95 2 97.9998 5 97.9998 9.09099V19Z" fill="#5B7C99"/>
<path d="M11.5 13C12.8807 13 14 11.8807 14 10.5C14 9.11929 12.8807 8 11.5 8C10.1193 8 9 9.11929 9 10.5C9 11.8807 10.1193 13 11.5 13Z" fill="#5B7C99"/>
<path d="M20.5 13C21.8807 13 23 11.8807 23 10.5C23 9.11929 21.8807 8 20.5 8C19.1193 8 18 9.11929 18 10.5C18 11.8807 19.1193 13 20.5 13Z" fill="#5B7C99"/>
<path d="M29.5 13C30.8807 13 32 11.8807 32 10.5C32 9.11929 30.8807 8 29.5 8C28.1193 8 27 9.11929 27 10.5C27 11.8807 28.1193 13 29.5 13Z" fill="#5B7C99"/>
<path d="M30.281 90H37.719C37.9474 90 38 89.9339 38 89.5151C38 89.0964 37.9474 89 37.719 89H30.281C30.0526 89 30 89.0964 30 89.5151C30 89.9339 30.0526 90 30.281 90Z" fill="#5B7C99"/>
<path d="M30.281 92H37.719C37.9474 92 38 91.9339 38 91.5151C38 91.0964 37.9474 91 37.719 91H30.281C30.0526 91 30 91.0964 30 91.5151C30 91.9339 30.0526 92 30.281 92Z" fill="#5B7C99"/>
<path d="M41.281 90H48.719C48.9474 90 49 89.9339 49 89.5151C49 89.0964 48.9474 89 48.719 89H41.281C41.0526 89 41 89.0964 41 89.5151C41 89.9339 41.0526 90 41.281 90Z" fill="#5B7C99"/>
<path d="M41.281 92H48.719C48.9474 92 49 91.9339 49 91.5151C49 91.0964 48.9474 91 48.719 91H41.281C41.0526 91 41 91.0964 41 91.5151C41 91.9339 41.0526 92 41.281 92Z" fill="#5B7C99"/>
<path d="M52.281 90H59.719C59.9474 90 60 89.9339 60 89.5151C60 89.0964 59.9474 89 59.719 89H52.281C52.0526 89 52 89.0964 52 89.5151C52 89.9339 52.0526 90 52.281 90Z" fill="#5B7C99"/>
<path d="M63.281 90H70.719C70.9474 90 71 89.9339 71 89.5151C71 89.0964 70.9474 89 70.719 89H63.281C63.0526 89 63 89.0964 63 89.5151C63 89.9339 63.0526 90 63.281 90Z" fill="#5B7C99"/>
<path d="M52.281 92H59.719C59.9474 92 60 91.9339 60 91.5151C60 91.0964 59.9474 91 59.719 91H52.281C52.0526 91 52 91.0964 52 91.5151C52 91.9339 52.0526 92 52.281 92Z" fill="#5B7C99"/>
<path d="M63.281 92H70.719C70.9474 92 71 91.9339 71 91.5151C71 91.0964 70.9474 91 70.719 91H63.281C63.0526 91 63 91.0964 63 91.5151C63 91.9339 63.0526 92 63.281 92Z" fill="#5B7C99"/>
<path d="M14.5 93C19 93 19 93 19 90.5C19 88 19 88 14.5 88C10 88 10 88 10 90.5C10 93 10 93 14.5 93Z" fill="#5B7C99"/>
<path d="M82.281 90H89.719C89.9474 90 90 89.8677 90 89.0302C90 88.1927 89.9474 88 89.719 88H82.281C82.0526 88 82 88.1927 82 89.0302C82 89.8677 82.0526 90 82.281 90Z" fill="#5B7C99"/>
<path d="M82.281 93H89.719C89.9474 93 90 92.8677 90 92.0302C90 91.1927 89.9474 91 89.719 91H82.281C82.0526 91 82 91.1927 82 92.0302C82 92.8677 82.0526 93 82.281 93Z" fill="#5B7C99"/>
</g>
<defs>
<clipPath id="clip0_3_23">
<rect width="100" height="100" fill="white"/>
</clipPath>
</defs>
</svg>
