<svg width="100" height="100" viewBox="0 0 100 100" fill="none" xmlns="http://www.w3.org/2000/svg">
<g clip-path="url(#clip0_3_16)">
<path d="M90.9092 0H9.09099C4.07706 0 0 4.07706 0 9.09099V90.9092C0 95.9229 4.07706 100 9.09099 100H90.9092C95.9229 100 100 95.9232 100 90.9092V9.09099C100 4.07706 95.9229 0 90.9092 0ZM98 90.9092C98 95 95 98 90.9092 98H9.09099C5 98 2.00021 95 2.00021 90.9092L2 38H98V90.9092ZM98 36H2V21H98V36ZM98.0002 19H2.00021L2 9.09099C2 5 5 2 9.09099 2H90.9092C95 2 98 5 97.9998 9.09099L98.0002 19Z" fill="#5B7C99"/>
<path d="M11.5 13C12.8807 13 14 11.8807 14 10.5C14 9.11929 12.8807 8 11.5 8C10.1193 8 9 9.11929 9 10.5C9 11.8807 10.1193 13 11.5 13Z" fill="#5B7C99"/>
<path d="M13.5 32C18 32 18 32 18 28.5C18 25 18 25 13.5 25C9 25 9 25 9 28.5C9 32 9 32 13.5 32Z" fill="#5B7C99"/>
<path d="M20.5 13C21.8807 13 23 11.8807 23 10.5C23 9.11929 21.8807 8 20.5 8C19.1193 8 18 9.11929 18 10.5C18 11.8807 19.1193 13 20.5 13Z" fill="#5B7C99"/>
<path d="M29.5 13C30.8807 13 32 11.8807 32 10.5C32 9.11929 30.8807 8 29.5 8C28.1193 8 27 9.11929 27 10.5C27 11.8807 28.1193 13 29.5 13Z" fill="#5B7C99"/>
<path d="M28.5455 30H69.4547C70.7109 30 71 29.8016 71 28.5453C71 27.2891 70.7109 27 69.4547 27H28.5455C27.2893 27 27 27.2891 27 28.5453C27 29.8016 27.2893 30 28.5455 30Z" fill="#5B7C99"/>
<path d="M80.1756 30H84.8244C84.9671 30 85 29.8016 85 28.5453C85 27.2891 84.9671 27 84.8244 27H80.1756C80.0329 27 80 27.2891 80 28.5453C80 29.8016 80.0329 30 80.1756 30Z" fill="#5B7C99"/>
<path d="M86.1756 30H90.8244C90.9671 30 91 29.8016 91 28.5453C91 27.2891 90.9671 27 90.8244 27H86.1756C86.0329 27 86 27.2891 86 28.5453C86 29.8016 86.0329 30 86.1756 30Z" fill="#5B7C99"/>
</g>
<defs>
<clipPath id="clip0_3_16">
<rect width="100" height="100" fill="white"/>
</clipPath>
</defs>
</svg>
